<svg xmlns="http://www.w3.org/2000/svg" width="1204" height="304"><defs><clipPath clipPathUnits="userSpaceOnUse" id="cp1"><path d="M0 0h1204v304H0z"/></clipPath></defs><style/><g id="Page 1" clip-path="url(#cp1)"><path id="Path 1" d="M228.72 163.61V6.58h47.72v150.98h32.52c3.92 0 12.94.24 24.1-4.39 11.16-4.63 19.7-12.34 25.64-22.67 5.94-10.33 11.28-29.79 11.28-29.79h3.8v62.91zM419.46 6.58l61.78 110.22c.15-.28 29.74-57.23 32.33-62.22 4.99-9.6 8.73-21.61 3.57-30.08-5.35-8.79-12.52-11.08-24.5-14.05V6.41h68.06v4.04s-6.94.52-13.18 4.55c-6.23 4.04-9.37 8.25-15.19 17.21-5.14 7.92-47.48 91.04-47.48 91.04l-3.62-6.46 3.62 6.46-23.45 45.34h-3.15L365.21 6.57zm317.01 98.76h4.21v58.28H585.9V6.59h153.35v53.65h-4.16l-3.44-11.04s-1.78-7.12-8.66-16.5c-6.88-9.38-20.3-20.06-40.36-20.06h-49.02v86.28h56.32v8.71h-56.32v49.85h46.46c20.33 0 33.92-10.83 40.9-20.33 6.98-9.5 11.69-21.57 11.69-21.57zm466.58-20.27c0 52.2-47.18 82.29-105.04 82.29-57.87 0-105.05-30.33-105.05-82.29 0-51.96 47-82.23 105.05-82.23 58.04 0 105.04 30.03 105.04 82.23zm-50.38 0c0-64.12-33.65-76.88-54.66-76.88-20.83 0-54.3 12.82-54.3 76.82 0 64.01 32.58 76.83 54.3 76.83s54.66-12.64 54.66-76.77zM102.91 1.6l94.63 162.02h-54.3l-28.62-49.22h-13.41c-26.67 0-33.79 49.22-33.79 49.22H0v-4.33s6.65-1.15 12.82-5.48 9.97-10.32 14.84-17.97c.05-.08.1-.15.15-.23 10.75-17.12 28.7-27.41 47.93-27.41h35.27L75.49 47.1 99.7 1.61zm863.33 152.62c6.17 4.04 12.21 5.37 12.21 5.37v4.03h-67.42s-1.21-9.36-4.81-19.14c-2.05-5.55-7.53-24.37-29.31-32.74-5.89-2.26-11-3.78-12.93-4.33l-24.49.02v56.19h-47.71V6.59h80.82c21.28 0 85.99-2.83 85.99 51.39 0 44.84-49.5 49.21-74.8 49.47 10.21.36 22.4 1.2 29.67 3.1 15.43 4.04 28.42 11.87 37.74 26.41 4.85 7.14 8.86 13.21 15.03 17.25zm-126.75-53.11h26.88c11.71 0 26.66-1.16 36.63-17.71 9.55-15.85 7.7-43.05.05-54.6-7.66-11.54-18.87-16.18-36.68-16.18h-26.88zM276.44 256.9h34.26v7.58h-26.21v13.18h24.48v7.58h-24.48v18.23h-8.05zm106.69 0l20.42 46.56h-8.45l-4.52-10.31h-21.22l-4.46 10.31h-8.31l20.42-46.56zm4.46 29.34l-7.65-17.69-7.65 17.69zm102.8-3.53c1.26 1.77 1.9 4.17 1.9 7.19 0 2.4-.45 4.45-1.33 6.19-.89 1.73-2.13 3.14-3.72 4.22-1.6 1.09-3.52 1.89-5.75 2.39-2.24.51-4.71.76-7.42.76h-19.36V256.9h19.76c3.1 0 5.7.29 7.78.86 2.08.58 3.75 1.39 4.99 2.43 1.24 1.04 2.13 2.29 2.66 3.73.53 1.44.8 3 .8 4.69 0 2.44-.51 4.52-1.53 6.25-1.02 1.73-2.37 3.1-4.06 4.12 2.26.71 4.03 1.95 5.29 3.72zm-27.64-6.65h11.51c2.57 0 4.57-.5 5.99-1.5s2.13-2.38 2.13-4.16c0-1.95-.63-3.43-1.9-4.43-1.26-1-3.63-1.5-7.09-1.5h-10.64zm21.16 13.37c0-2.08-.75-3.61-2.26-4.59-1.51-.97-4.04-1.46-7.58-1.46h-11.31v12.51h10.78c3.68 0 6.33-.51 7.95-1.53s2.43-2.66 2.43-4.92zm97.94-6.72c1.26 1.77 1.9 4.17 1.9 7.19 0 2.4-.44 4.45-1.33 6.19-.89 1.73-2.13 3.14-3.73 4.22-1.6 1.09-3.51 1.89-5.75 2.39-2.24.51-4.71.76-7.42.76h-19.36V256.9h19.76c3.1 0 5.7.29 7.79.86 2.08.58 3.75 1.39 4.99 2.43 1.24 1.04 2.13 2.29 2.66 3.73.53 1.44.8 3 .8 4.69 0 2.44-.51 4.52-1.53 6.25-1.02 1.73-2.37 3.1-4.06 4.12 2.26.71 4.02 1.95 5.29 3.72zm-27.63-6.65h11.51c2.57 0 4.57-.5 5.99-1.5s2.13-2.38 2.13-4.16c0-1.95-.64-3.43-1.9-4.43-1.26-1-3.62-1.5-7.08-1.5h-10.64zm21.15 13.37c0-2.08-.76-3.61-2.26-4.59-1.51-.97-4.04-1.46-7.58-1.46h-11.31v12.51H565c3.68 0 6.33-.51 7.95-1.53s2.43-2.66 2.43-4.92zm88.67-4.59l13.97 18.63h-9.78l-12.71-17.1h-9.84v17.1h-8.05v-46.56h18.29c3.64 0 6.63.41 8.98 1.23 2.35.82 4.22 1.89 5.62 3.22 1.4 1.33 2.37 2.87 2.93 4.62.55 1.75.83 3.56.83 5.42 0 1.59-.24 3.12-.73 4.56-.49 1.44-1.17 2.74-2.06 3.89-.89 1.16-1.96 2.16-3.23 3.03-1.26.86-2.67 1.52-4.22 1.96zm1.86-13.43c0-1.02-.16-1.95-.5-2.79-.33-.84-.89-1.57-1.66-2.2-.78-.62-1.82-1.1-3.13-1.43-1.31-.33-2.94-.5-4.89-.5h-10.04v14.3h10.44c3.06 0 5.45-.65 7.19-1.96 1.73-1.31 2.59-3.12 2.59-5.42zm63.73-14.51h8.05v46.56h-8.05zm99.57 33.26l4.72 5.19c-1.95 2.75-4.59 4.88-7.91 6.39-3.32 1.51-6.98 2.26-10.97 2.26-3.68 0-7-.56-9.95-1.7-2.95-1.13-5.45-2.73-7.52-4.79-2.06-2.06-3.66-4.57-4.79-7.51-1.13-2.95-1.69-6.22-1.69-9.81 0-3.33.56-6.44 1.69-9.35 1.13-2.9 2.73-5.42 4.79-7.55s4.57-3.81 7.52-5.06c2.95-1.24 6.22-1.86 9.81-1.86 4.26 0 7.97.75 11.14 2.26 3.17 1.51 5.55 3.44 7.15 5.79l-5.32 5.06c-3.24-3.59-7.43-5.39-12.57-5.39-2.4 0-4.57.39-6.52 1.16-1.95.78-3.62 1.86-4.99 3.26-1.38 1.4-2.44 3.08-3.19 5.05-.75 1.97-1.13 4.18-1.13 6.62 0 2.44.4 4.65 1.2 6.62.8 1.98 1.91 3.66 3.33 5.05 1.42 1.4 3.11 2.49 5.09 3.26 1.97.78 4.16 1.16 6.55 1.16 2.93 0 5.52-.54 7.78-1.63a17.2 17.2 0 005.79-4.49zm78.36-33.26l20.42 46.56h-8.45l-4.52-10.31h-21.22l-4.45 10.31h-8.32l20.42-46.56zm4.46 29.34l-7.65-17.69-7.65 17.69z" fill="#221f1f"/></g></svg>