<svg xmlns="http://www.w3.org/2000/svg" width="468" height="518"><style>.shp0{fill:none}.shp1{fill:#b06c47}</style><path id="Layer" class="shp0" d="M249.52 354.64c-21.56-.93-44.69-14.83-57.56-41.69-15.48-32.3-13.37-64.78 8.94-93.78 24.03-31.18 63.38-44.93 91.93-33.93a67.527 67.527 0 014.67 1.91c.77.35 1.52.71 2.28 1.09.75.38 1.5.77 2.23 1.18 34.67 20.09 40.62 65.69 33.62 104.09-6.34 34.75-42.77 61.36-86.11 61.13zm57.13-89.94c.17-19.39-12.85-34-30.1-33.77-20.46.27-41.37 20.87-42.05 41.43-.58 17.53 14.57 31.5 34.42 31.73 20.76.23 37.53-17.28 37.73-39.39z"/><path id="Layer" class="shp0" d="M276.47 235.94c-17.39.51-37.46 20.45-37.44 37.2 0 13.23 14.89 26.29 29.92 26.28 17.45 0 33.1-16.95 33.08-35.8-.02-15.4-11.74-28.09-25.56-27.68z"/><path id="Layer" class="shp0" d="M246.86 437c-123.65-3.1-194.55-120.46-141.48-234.7 24.48-52.72 63.18-90.37 120.71-104.53 75.47-18.58 147.78 25.83 162.47 102.32 8.07 42.04 17.25 85.46 5.44 128.58C375.46 396.4 317.06 438.79 246.86 437zm-11.13-80.3c34.17 10.52 70.33-4.95 94.33-36.29 21.91-28.57 14.28-105.49-13.94-127.06-8.58-6.56-16.99-12.68-27.9-14.95-55.28-11.54-111.83 37.52-110.46 96 .96 40.76 22.52 71.35 57.97 82.3z"/><path id="Layer" class="shp1" d="M461.52 281.3c-6.15-38.6-5.74-77.29-9.56-115.82C441.73 62.21 342.67-12.27 241.47 7.06 113.86 31.45 9.86 150.63 4.27 280.26c-2.16 50.22 8.31 97.35 41.8 137.08 1.31-5.7-2.43-9.48-5.09-13.74-31.77-50.88-39.7-106.23-26.6-163.83C38.62 133.23 105.01 61.86 205.56 22.93c121.37-47 242.24 37 242.86 166.84.14 30.37 1.27 60.63 8.11 90.51 3.91 17.09 3.41 34.73.33 52-21.08 118.58-135 195.46-254.3 173.09-50.68-9.5-94.45-31.48-133.07-64.87-1 7.88 5.8 10.54 10.22 14.13 66 53.64 141.27 71.49 223.39 51.27 99.39-24.46 174.69-122.49 158.42-224.6z"/><path id="Layer" class="shp1" d="M208.94 437.32c-77.3-20.12-127.43-82.08-126.75-156.66.75-85.34 60.75-166.58 137.75-186.58 88.16-22.87 168 30.81 177 121.55 3.35 33.3 12.18 66.57 5.35 100.73-18.1 90.64-103.61 144.32-193.35 120.96zm37.92-.32c70.2 1.79 128.6-40.6 147.14-108.33 11.81-43.12 2.63-86.58-5.44-128.58-14.7-76.49-87.02-120.9-162.47-102.32-57.53 14.16-96.23 51.81-120.71 104.53C52.31 316.54 123.21 433.9 246.86 437z"/><path id="Layer" class="shp1" d="M235.76 356.64c-35.48-10.92-57-41.51-58-82.27-1.37-58.45 55.18-107.51 110.46-96 10.9 2.27 19.32 8.39 27.9 14.95 28.22 21.57 35.85 98.49 13.94 127.06-24.04 31.34-60.2 46.81-94.3 36.26zm13.76-1.95c43.31.23 79.77-26.38 86.11-61.13 7.01-38.4 1.05-83.99-33.62-104.09-.74-.41-1.48-.8-2.23-1.18-.75-.38-1.51-.74-2.28-1.09a67.527 67.527 0 00-4.67-1.91c-28.55-11.07-67.93 2.75-91.93 33.93-22.31 28.95-24.42 61.48-8.94 93.78 12.9 26.81 35.99 40.71 57.56 41.69z"/><path id="Layer" class="shp1" d="M306.65 264.7c-.2 22.11-16.97 39.62-37.73 39.39-19.85-.23-35-14.2-34.42-31.73.68-20.56 21.59-41.16 42.05-41.43 17.25-.23 30.31 14.38 30.1 33.77zm-4.62-1.08c-.02-15.4-11.74-28.09-25.56-27.68-17.39.51-37.44 20.45-37.44 37.2.01 13.23 14.92 26.28 29.92 26.28 17.45-.01 33.1-16.95 33.08-35.8z"/></svg>