<svg width="90" height="90" fill="none" xmlns="http://www.w3.org/2000/svg"><path fill="#000" d="M0 0h90v90H0z"/><path d="M30 7C17.333 7 7 17.333 7 30v30c0 12.665 10.332 23 23 23h30c12.666 0 23-10.334 23-23V30C83 17.332 72.665 7 60 7H30zm0 6h30c9.422 0 17 7.576 17 17v30c0 9.422-7.578 17-17 17H30c-9.424 0-17-7.578-17-17V30c0-9.425 7.575-17 17-17zm35 8c-2.21 0-4 1.79-4 4s1.79 4 4 4 4-1.79 4-4-1.79-4-4-4zm-20 4c-11.01 0-20 8.99-20 20s8.99 20 20 20 20-8.99 20-20-8.99-20-20-20zm0 6c7.766 0 14 6.234 14 14s-6.234 14-14 14-14-6.234-14-14 6.234-14 14-14z" fill="#fff"/></svg>