<svg width="80" height="80" fill="none" xmlns="http://www.w3.org/2000/svg"><path fill="#000" d="M0 0h80v80H0z"/><path fill="#fff" d="M10 5h60v71H10z"/><path d="M75.598 4.4C72.665 1.468 69.132 0 65 0H15C10.868 0 7.335 1.467 4.4 4.4 1.468 7.336 0 10.869 0 15v50c0 4.131 1.467 7.665 4.4 10.599C7.336 78.533 10.869 80 15 80h50c4.131 0 7.665-1.467 10.598-4.401 2.934-2.934 4.4-6.468 4.4-10.6V15c0-4.13-1.466-7.665-4.4-10.598zM65.52 60.726c-.73 1.596-2.37 2.986-4.921 4.167-2.552 1.181-4.819 1.772-6.798 1.772-.556 0-1.146-.043-1.771-.13a28.233 28.233 0 01-1.588-.26 16.985 16.985 0 01-1.719-.47 26.697 26.697 0 01-1.536-.52c-.313-.12-.886-.338-1.718-.65a56.783 56.783 0 00-1.563-.573c-5.694-2.084-11.259-5.842-16.693-11.276-5.433-5.435-9.192-10.999-11.276-16.692a172.4 172.4 0 00-1.224-3.28c-.12-.314-.295-.826-.52-1.537a17.116 17.116 0 01-.469-1.72 27.446 27.446 0 01-.26-1.587 12.913 12.913 0 01-.13-1.771c0-1.98.59-4.245 1.771-6.797 1.18-2.552 2.57-4.193 4.167-4.922 1.84-.764 3.594-1.146 5.26-1.146.382 0 .66.035.833.104.174.07.46.382.86.938.4.556.834 1.258 1.302 2.11.469.85.929 1.675 1.38 2.473.452.799.886 1.588 1.303 2.37.416.78.677 1.276.78 1.484.105.174.33.504.678.99.347.486.608.92.781 1.302.173.382.26.747.26 1.094 0 .521-.356 1.155-1.068 1.9a17.776 17.776 0 01-2.344 2.059 20.335 20.335 0 00-2.343 2.005c-.712.711-1.068 1.293-1.068 1.744 0 .244.06.53.182.86.122.33.235.6.339.807.104.208.27.504.495.886.225.383.373.625.442.73 1.91 3.437 4.106 6.397 6.588 8.88 2.484 2.484 5.443 4.68 8.881 6.589.104.07.347.217.73.443.382.225.678.39.886.494.209.104.477.217.807.338.33.121.617.182.861.182.554 0 1.318-.572 2.291-1.718a177.783 177.783 0 012.97-3.412c1.006-1.128 1.821-1.692 2.447-1.692.347 0 .711.086 1.095.26.382.173.815.434 1.3.781.488.349.817.573.99.68l2.76 1.508c1.84.973 3.377 1.832 4.61 2.578 1.233.747 1.902 1.259 2.006 1.536.07.174.103.452.103.834-.002 1.665-.384 3.419-1.149 5.255z" fill="#000"/></svg>