<svg width="91" height="91" fill="none" xmlns="http://www.w3.org/2000/svg"><path d="M11.223.343C5.308.343.508 5.143.508 11.057v68.57c0 5.915 4.8 10.715 10.715 10.715h68.57c5.914 0 10.714-4.8 10.714-10.715v-68.57c0-5.914-4.8-10.714-10.714-10.714h-68.57zm12.856 8.571h5.144l3.428 8.572 3.427-8.572h5.144l-6.428 15v8.572h-4.286v-8.593c-1.286-3.45-5.55-12.814-6.428-14.979zm21.429 6.429c1.907 0 3.793.577 4.993 2.034.921 1.05 1.435 2.743 1.435 4.972v3.13c0 2.229-.426 3.772-1.326 4.822-1.2 1.436-3.195 2.185-5.102 2.185-1.907 0-3.856-.75-5.056-2.185-.921-1.05-1.373-2.593-1.373-4.821v-3.11c0-2.229.493-3.943 1.436-4.993 1.2-1.457 2.828-2.034 4.993-2.034zm8.571 0h4.286V28.2c.107.578.727.837 1.306.837.878 0 1.994-1.028 2.98-2.164v-11.53h4.285v17.143H62.65v-2.96c-1.735 1.693-3.214 2.961-5.164 2.897-1.414-.043-2.4-.558-2.892-1.587-.3-.6-.515-1.565-.515-2.98V15.344zm-8.571 3.47c-.295 0-.577.064-.833.175a2.16 2.16 0 00-.682.469 2.205 2.205 0 00-.628 1.544v6.019c0 .6.24 1.148.628 1.544a2.159 2.159 0 001.515.645 2.1 2.1 0 00.833-.176 2.196 2.196 0 001.31-2.013V21c0-1.2-.965-2.189-2.143-2.189zm-.021 20.1h.042s14.377.002 23.977.687c1.35.15 4.266.172 6.88 2.85 2.057 2.015 2.72 6.642 2.72 6.642s.687 3.28.687 8.701v5.077c0 5.421-.686 8.701-.686 8.701s-.664 4.628-2.72 6.642c-2.615 2.678-5.531 2.7-6.881 2.85-9.6.686-23.998.707-23.998.707s-17.83-.172-23.316-.686c-1.521-.279-4.948-.193-7.563-2.85-2.057-2.036-2.72-6.663-2.72-6.663s-.687-3.28-.687-8.701v-5.077c0-5.421.687-8.7.687-8.7s.663-4.628 2.72-6.643c2.615-2.678 5.53-2.7 6.88-2.85 9.6-.685 23.978-.686 23.978-.686zM17.65 47.486v4.24h4.286V73.2h4.285V51.725h4.286v-4.24H17.651zm27.857 0V73.2h4.285v-2.678c1.353 1.673 3.114 2.678 4.554 2.678 1.611 0 3.017-.867 3.557-2.528.255-.898.444-1.736.46-3.633v-5.892c0-2.117-.286-3.712-.556-4.612-.54-1.674-1.847-2.61-3.461-2.62-2.1-.015-2.946 1.071-4.554 2.946v-9.375h-4.285zm-15 6.429V68.24c0 1.547.215 2.585.494 3.264.471 1.101 1.433 1.695 2.804 1.695 1.564 0 3.58-1.102 5.273-2.925v2.925h4.286V53.914h-4.286v13.434c-.943 1.252-2.315 2.185-3.172 2.185-.557 0-1.006-.235-1.113-.85v-14.77h-4.286zm36.49 0c-2.16 0-3.846.679-5.067 1.962-.9.948-1.423 2.496-1.423 4.504v6.57c0 1.995.575 3.392 1.473 4.328 1.223 1.284 2.907 1.921 5.118 1.921 2.21 0 3.949-.671 5.119-2.034.514-.602.844-1.28.988-2.034.038-.34.159-1.266.159-2.36h-4.286v1.711c0 .995-.96 1.8-2.143 1.8-1.183 0-2.143-.808-2.143-1.8v-3.854h8.572v-4.332c0-2.004-.492-3.47-1.377-4.42-1.185-1.283-2.868-1.962-4.99-1.962zm-.062 3.1c1.183 0 2.143.808 2.143 1.8v2.846h-4.286v-2.845c0-.995.96-1.8 2.143-1.8zm-14.527.641c1.168 0 1.67.718 1.67 2.955v5.893c0 2.237-.502 3.009-1.67 3.009-.666 0-1.938-.457-2.616-1.134v-9.375c.678-.669 1.95-1.348 2.616-1.348z" fill="#000"/><path d="M.51.342h17.142v15H.509v-15zm72.856 0h17.142v15H73.366v-15zm2.142 79.284h15V90.34h-15V79.626zm-74.998 0h15V90.34h-15V79.626z" fill="#000"/></svg>