<svg xmlns="http://www.w3.org/2000/svg" width="65" height="65"><path d="M3 59.1v-7.9a1.499 1.499 0 00-2.56-1.06c-.28.28-.44.66-.44 1.06v11.5c0 .05 0 .09.01.14 0 .05.01.09.02.14.01.05.02.09.03.13.01.04.03.09.05.13.04.09.09.18.14.26.06.08.12.16.19.23s.15.13.23.19c.08.06.17.1.26.14.04.02.09.03.13.05.04.01.09.03.13.03.05.01.09.02.14.02.05 0 .09.01.14.01H13a1.499 1.499 0 001.06-2.56c-.28-.28-.66-.44-1.06-.44H5.1L28 38.32a1.502 1.502 0 00.04-2.16 1.502 1.502 0 00-2.16.04zM63.24.1c-.04-.02-.09-.03-.13-.05-.04-.01-.09-.03-.13-.03-.05-.01-.09-.02-.14-.02-.05 0-.09-.01-.14-.01H51.2a1.499 1.499 0 00-1.06 2.56c.28.28.66.44 1.06.44h7.9L36.2 25.88c-.26.28-.41.66-.4 1.05.01.39.16.76.44 1.03.27.27.65.43 1.03.44.39.01.76-.14 1.05-.4L61.2 5.1V13a1.499 1.499 0 002.56 1.06c.28-.28.44-.66.44-1.06V1.5c0-.05 0-.09-.01-.14 0-.05-.01-.09-.02-.14-.01-.05-.02-.09-.03-.13a.694.694 0 00-.05-.13.539.539 0 00-.07-.13.913.913 0 00-.08-.13l-.09-.12c-.03-.04-.06-.08-.1-.11-.04-.03-.07-.07-.11-.1l-.12-.09c-.04-.03-.08-.05-.13-.08-.04-.02-.09-.05-.13-.07z" fill="#fff"/></svg>